{"asset":{"generator":"3D Builder","version":"2.0"},"scene":0,"scenes":[{"nodes":[0]}],"nodes":[{"mesh":0,"matrix":[1,0,0,0,0,-1.1920928955078125E-7,-0.99999988079071045,0,0,0.99999988079071045,-1.1920928955078125E-7,0,0.29029294848442078,0.10982034355401993,-0.076824001967906952,1]}],"meshes":[{"primitives":[{"attributes":{"POSITION":0,"TEXCOORD_0":1},"mode":4,"indices":2,"material":0}]}],"materials":[{"pbrMetallicRoughness":{"baseColorFactor":[1,1,1,1],"metallicFactor":0,"roughnessFactor":1,"baseColorTexture":{"index":0,"texCoord":0}},"alphaMode":"OPAQUE"}],"textures":[{"source":0,"sampler":0}],"images":[{"uri":"textures\\Tree_tex_baseColor1.png"}],"samplers":[{"magFilter":9728,"wrapS":10497,"wrapT":10497}],"accessors":[{"bufferView":0,"byteOffset":0,"count":955,"componentType":5126,"type":"VEC3","min":[-4.9877629280090332,-4.009462833404541,-0.10982036590576172],"max":[4.4071769714355469,3.8558151721954346,11.7339506149292]},{"bufferView":1,"byteOffset":0,"count":955,"componentType":5126,"type":"VEC2"},{"bufferView":2,"byteOffset":0,"count":3540,"componentType":5125,"type":"SCALAR"}],"bufferViews":[{"buffer":0,"byteOffset":0,"byteLength":11460,"byteStride":12,"target":34962},{"buffer":0,"byteOffset":11460,"byteLength":7640,"byteStride":8,"target":34962},{"buffer":0,"byteOffset":19100,"byteLength":14160,"target":34963}],"buffers":[{"byteLength":33260,"uri":"scene1.bin"}]}